# xmcd
#
# Track frame offsets:
#	150
#	13248
#	24918
#	38080
#	50280
#	62495
#	77469
#	87122
#	101344
#	114235
#	124513
#	136728
#	150419
#	162271
#	172650
#	183699
#	199258
#	211445
#	223787
#	237331
#	249111
#	262970
#	276761
#	287248
#	300216
#
# Disc length: 4310 seconds
#
# Revision: 3
# Processed by: cddbd v1.4PL0 Copyright (c) Steve Scherf et al.
# Submitted via: MusicWizard 6.0.2
#
DISCID=3c10d419
DTITLE=Various Artist - 50 Volkstümliche Hits CD 1/2
DYEAR=1999
DGENRE=Volksmusik
TTITLE0=Karl Moik - Steirischer Brauch
TTITLE1=Die Jungen Original Oberkrainer - Pisten - Polka
TTITLE2=Elfi Graf - Gesuch - Gefunden
TTITLE3=Südtiroler Nachtfalken Aus Kastelruth - Ah Musi Und An Jodler
TTITLE4=Trio Herzblatt - Da Boarische
TTITLE5=Larifari - Ale Hepp (Wir Brauchen Keinen Rap)
TTITLE6=Maria Hellwig - Der Kaiserjodler
TTITLE7=Sommerwind - Komm Ich Zeig Dir Den Himmel
TTITLE8=Das Leisenberg Duo - Wunderschö Ist Die Mosel Zur Frühlingszeit
TTITLE9=Mehrnsteiner Musikanten - Alleweil Lustig
TTITLE10=Original 4 Salzburger - Alphornmelody
TTITLE11=Xaver Karl and Seine Bayerwalder Musikanten - Glocken - Polka
TTITLE12=Barbara Lexa - Je Höher Der Kirchturm
TTITLE13=Lydia Huber and Die Tirolerspitzbaum - Appenzeller
TTITLE14=Original Bregenzerwäler Dorfmusikanten - Alpenklänge
TTITLE15=Heinz Schnicke - Aus Dem Kuhstall Einen Gruss
TTITLE16=Sonnenbühler Spitzbuaba - Grüne Tannen
TTITLE17=Original Siegener Stadtmusikanten - Servus, Pfüät Gott Und Auf Wiedersehen
TTITLE18=Andres and Andres - Westerwald Project
TTITLE19=Original Alpen-Karavan's - Mein Brummer Und Ich
TTITLE20=Andrea and Günter - Lieder Der Berge
TTITLE21=Mike Fender - Ein Engel Weint Doch Nicht
TTITLE22=Allgäu Spatzen - Alphorn Rock'n Roll
TTITLE23=Orchester Ambros Seelos - Über Jedes Bacherl Geht A Brückerl
TTITLE24=Freddy Breck - Das Kleine Zimmer Unterm Dach
EXTD=
EXTT0=
EXTT1=
EXTT2=
EXTT3=
EXTT4=
EXTT5=
EXTT6=
EXTT7=
EXTT8=
EXTT9=
EXTT10=
EXTT11=
EXTT12=
EXTT13=
EXTT14=
EXTT15=
EXTT16=
EXTT17=
EXTT18=
EXTT19=
EXTT20=
EXTT21=
EXTT22=
EXTT23=
EXTT24=
PLAYORDER=
